<svg width="144" height="48" viewBox="0 0 144 48" fill="none" xmlns="http://www.w3.org/2000/svg">
<g clip-path="url(#clip0_4531_40430)">
<path d="M132.533 0.000156H11.4737C11.0325 0.000156 10.5965 0.000156 10.1564 0.002556C9.78796 0.004956 9.42249 0.011928 9.05054 0.017796C8.24249 0.0272782 7.43635 0.0981675 6.63911 0.229848C5.84299 0.364395 5.07181 0.618055 4.35165 0.982248C3.63237 1.34952 2.97514 1.82676 2.40381 2.39664C1.82948 2.96492 1.35074 3.62177 0.98598 4.34195C0.620217 5.06069 0.366595 5.83088 0.233875 6.62593C0.0998928 7.41998 0.0277959 8.22318 0.018231 9.02833C0.00706378 9.39625 0.00588447 9.76539 0 10.1334V37.8705C0.00588447 38.2431 0.00706378 38.604 0.018231 38.9767C0.0277988 39.7819 0.0998957 40.585 0.233875 41.379C0.366228 42.1745 0.619865 42.9452 0.98598 43.6642C1.35057 44.382 1.82939 45.0362 2.40381 45.6013C2.97298 46.1738 3.63063 46.6513 4.35165 47.0158C5.0718 47.381 5.8429 47.6361 6.63911 47.7727C7.43648 47.9034 8.24254 47.9743 9.05054 47.9849C9.42249 47.9931 9.78796 47.9977 10.1564 47.9977C10.5965 48.0001 11.0325 48.0001 11.4737 48.0001H132.533C132.965 48.0001 133.405 48.0001 133.837 47.9977C134.204 47.9977 134.58 47.9931 134.947 47.9849C135.753 47.9749 136.558 47.9039 137.353 47.7727C138.152 47.6352 138.926 47.3801 139.65 47.0158C140.37 46.6511 141.027 46.1736 141.596 45.6013C142.169 45.034 142.648 44.3803 143.018 43.6642C143.381 42.9447 143.632 42.1741 143.763 41.379C143.897 40.5849 143.971 39.7819 143.986 38.9767C143.991 38.604 143.991 38.2431 143.991 37.8705C144 37.4345 144 37.0009 144 36.5579V11.4435C144 11.0041 144 10.5681 143.991 10.1334C143.991 9.76539 143.991 9.39625 143.986 9.02828C143.971 8.22306 143.897 7.42004 143.763 6.62588C143.632 5.83129 143.381 5.06116 143.018 4.3419C142.275 2.89839 141.097 1.72339 139.65 0.98214C138.926 0.618837 138.152 0.365244 137.353 0.22974C136.558 0.0974793 135.753 0.0265653 134.947 0.017628C134.58 0.011772 134.204 0.00474 133.837 0.0024C133.405 0 132.965 0 132.533 0V0.000156Z" fill="#A6A6A6"/>
<path d="M10.1625 46.9503C9.79583 46.9503 9.43805 46.9456 9.07428 46.9375C8.32071 46.9277 7.5689 46.8622 6.82502 46.7417C6.13138 46.6226 5.45944 46.401 4.83135 46.0843C4.20901 45.7701 3.6414 45.3582 3.15024 44.8643C2.65197 44.3763 2.23714 43.8102 1.92219 43.1885C1.60376 42.5628 1.3834 41.8922 1.26876 41.1999C1.14496 40.456 1.07798 39.7039 1.0684 38.9499C1.06077 38.6968 1.05078 37.8542 1.05078 37.8542V10.1335C1.05078 10.1335 1.06142 9.30381 1.06846 9.06005C1.07764 8.30727 1.14423 7.55628 1.26765 6.81357C1.3825 6.11939 1.60304 5.44679 1.92164 4.81905C2.23543 4.19783 2.64796 3.63133 3.14322 3.14151C3.63793 2.64704 4.20736 2.23302 4.83076 1.91454C5.4574 1.59881 6.12808 1.37877 6.82031 1.26182C7.56664 1.1401 8.32106 1.07429 9.07724 1.06494L10.1631 1.05029H133.832L134.93 1.06553C135.68 1.07441 136.427 1.13963 137.167 1.26064C137.866 1.37906 138.544 1.60063 139.177 1.91806C140.426 2.55988 141.442 3.57529 142.084 4.82198C142.397 5.44539 142.614 6.1125 142.728 6.80068C142.852 7.54948 142.922 8.30638 142.937 9.06533C142.94 9.40517 142.94 9.77021 142.94 10.1335C142.95 10.5835 142.95 11.0118 142.95 11.4436V36.5581C142.95 36.994 142.95 37.4194 142.94 37.8483C142.94 38.2385 142.94 38.596 142.936 38.9639C142.921 39.7093 142.853 40.4527 142.73 41.1881C142.618 41.8854 142.398 42.5613 142.08 43.1921C141.763 43.807 141.35 44.3682 140.858 44.855C140.366 45.3515 139.798 45.7658 139.174 46.082C138.542 46.4012 137.865 46.6236 137.167 46.7417C136.423 46.8629 135.671 46.9283 134.917 46.9375C134.565 46.9456 134.196 46.9503 133.837 46.9503L132.533 46.9527L10.1625 46.9503Z" fill="#212325"/>
<path d="M29.8066 24.3608C29.8196 23.3592 30.0864 22.3771 30.5822 21.506C31.078 20.6348 31.7867 19.9029 32.6424 19.3783C32.0988 18.6041 31.3817 17.967 30.548 17.5175C29.7142 17.0681 28.7869 16.8187 27.8396 16.7891C25.8189 16.5776 23.8598 17.9949 22.8301 17.9949C21.7804 17.9949 20.195 16.8101 18.4877 16.8451C17.3834 16.8807 16.3072 17.2009 15.3639 17.7746C14.4206 18.3483 13.6424 19.1558 13.1052 20.1186C10.7778 24.1367 12.5138 30.0419 14.7432 33.2899C15.8586 34.8803 17.1622 36.6568 18.8679 36.5938C20.537 36.5248 21.1604 35.5324 23.1752 35.5324C25.1713 35.5324 25.7562 36.5938 27.4965 36.5538C29.2876 36.5248 30.4161 34.9563 31.4923 33.3508C32.2937 32.2176 32.9104 30.9651 33.3195 29.6398C32.279 29.2009 31.391 28.4663 30.7663 27.5275C30.1416 26.5888 29.8078 25.4874 29.8066 24.3608Z" fill="white"/>
<path d="M26.5201 14.6531C27.4967 13.484 27.9778 11.9814 27.8613 10.4644C26.3693 10.6206 24.9911 11.3317 24.0014 12.4559C23.5174 13.0051 23.1468 13.644 22.9106 14.3361C22.6745 15.0283 22.5774 15.76 22.6251 16.4896C23.3713 16.4972 24.1096 16.3359 24.7843 16.0178C25.459 15.6997 26.0525 15.2331 26.5201 14.6531Z" fill="white"/>
<path d="M50.9062 32.5677H45.2102L43.8423 36.5954H41.4297L46.8249 21.6938H49.3315L54.7267 36.5954H52.2729L50.9062 32.5677ZM45.8001 30.7091H50.3152L48.0894 24.1724H48.0271L45.8001 30.7091Z" fill="white"/>
<path d="M66.378 31.1637C66.378 34.5399 64.5659 36.709 61.8313 36.709C61.1385 36.7452 60.4496 36.586 59.8434 36.2499C59.2371 35.9137 58.7381 35.4141 58.4033 34.8082H58.3516V40.1895H56.1152V25.7309H58.2799V27.5379H58.3211C58.6712 26.935 59.1787 26.438 59.7895 26.0997C60.4004 25.7615 61.0918 25.5948 61.7901 25.6172C64.5552 25.6172 66.378 27.7969 66.378 31.1637ZM64.0794 31.1637C64.0794 28.9641 62.9394 27.518 61.2002 27.518C59.4915 27.518 58.3422 28.9946 58.3422 31.1637C58.3422 33.3528 59.4915 34.8188 61.2002 34.8188C62.9394 34.8188 64.0794 33.3833 64.0794 31.1637Z" fill="white"/>
<path d="M78.3702 31.1637C78.3702 34.5399 76.5581 36.709 73.8235 36.709C73.1307 36.7452 72.4418 36.586 71.8356 36.2499C71.2293 35.9137 70.7302 35.4141 70.3955 34.8082H70.3438V40.1895H68.1074V25.7309H70.2721V27.5379H70.3132C70.6633 26.935 71.1708 26.4379 71.7817 26.0997C72.3926 25.7615 73.084 25.5948 73.7823 25.6172C76.5475 25.6172 78.3702 27.7969 78.3702 31.1637ZM76.0716 31.1637C76.0716 28.9641 74.9316 27.518 73.1924 27.518C71.4837 27.518 70.3344 28.9946 70.3344 31.1637C70.3344 33.3528 71.4837 34.8188 73.1924 34.8188C74.9317 34.8188 76.0716 33.3833 76.0716 31.1637H76.0716Z" fill="white"/>
<path d="M86.2951 32.4434C86.4608 33.9212 87.9004 34.8914 89.8676 34.8914C91.7526 34.8914 93.1087 33.9211 93.1087 32.5887C93.1087 31.432 92.2908 30.7395 90.3542 30.2649L88.4175 29.7996C85.6735 29.1387 84.3996 27.859 84.3996 25.7824C84.3996 23.2113 86.6465 21.4453 89.8371 21.4453C92.9947 21.4453 95.1594 23.2113 95.2323 25.7824H92.9748C92.8396 24.2953 91.6069 23.3977 89.8053 23.3977C88.0038 23.3977 86.771 24.3059 86.771 25.6277C86.771 26.6813 87.5584 27.3012 89.4845 27.7757L91.1309 28.1789C94.1969 28.9019 95.4708 30.1301 95.4708 32.3097C95.4708 35.0976 93.2439 36.8437 89.7019 36.8437C86.3879 36.8437 84.1504 35.1386 84.0059 32.4433L86.2951 32.4434Z" fill="white"/>
<path d="M100.298 23.1597V25.7308H102.37V27.4968H100.298V33.4862C100.298 34.4167 100.713 34.8503 101.623 34.8503C101.869 34.846 102.115 34.8288 102.359 34.7987V36.5542C101.95 36.6305 101.533 36.665 101.117 36.6573C98.9111 36.6573 98.0509 35.8311 98.0509 33.7241V27.4968H96.4668V25.7308H98.0509V23.1597H100.298Z" fill="white"/>
<path d="M103.568 31.1636C103.568 27.7452 105.587 25.5972 108.736 25.5972C111.894 25.5972 113.904 27.7452 113.904 31.1636C113.904 34.5913 111.905 36.73 108.736 36.73C105.567 36.73 103.568 34.5913 103.568 31.1636ZM111.625 31.1636C111.625 28.8186 110.548 27.4347 108.736 27.4347C106.923 27.4347 105.847 28.8292 105.847 31.1636C105.847 33.5179 106.923 34.8913 108.736 34.8913C110.548 34.8913 111.625 33.5179 111.625 31.1636H111.625Z" fill="white"/>
<path d="M115.748 25.7308H117.881V27.58H117.933C118.077 27.0025 118.416 26.4921 118.894 26.1346C119.371 25.7771 119.957 25.5944 120.553 25.6171C120.811 25.6162 121.068 25.6441 121.32 25.7003V27.7863C120.994 27.6871 120.655 27.6416 120.315 27.6515C119.99 27.6384 119.666 27.6955 119.365 27.819C119.065 27.9424 118.794 28.1293 118.573 28.3668C118.352 28.6042 118.184 28.8867 118.083 29.1947C117.981 29.5027 117.948 29.829 117.984 30.1511V36.5953H115.748L115.748 25.7308Z" fill="white"/>
<path d="M131.631 33.4042C131.33 35.3765 129.404 36.73 126.939 36.73C123.77 36.73 121.803 34.6124 121.803 31.2151C121.803 27.8073 123.781 25.5972 126.845 25.5972C129.86 25.5972 131.755 27.662 131.755 30.9561V31.7202H124.06V31.855C124.025 32.2548 124.075 32.6576 124.207 33.0366C124.34 33.4156 124.552 33.7622 124.829 34.0532C125.106 34.3443 125.443 34.5732 125.815 34.7248C126.188 34.8763 126.589 34.9471 126.991 34.9323C127.52 34.9817 128.05 34.8596 128.503 34.5843C128.957 34.309 129.309 33.8951 129.507 33.4042L131.631 33.4042ZM124.071 30.1616H129.518C129.538 29.8021 129.483 29.4423 129.357 29.1049C129.231 28.7674 129.037 28.4596 128.786 28.2007C128.535 27.9417 128.233 27.7373 127.899 27.6003C127.565 27.4632 127.206 27.3965 126.845 27.4042C126.481 27.402 126.12 27.4718 125.783 27.6095C125.446 27.7472 125.14 27.9501 124.882 28.2064C124.624 28.4628 124.419 28.7676 124.28 29.1031C124.141 29.4387 124.07 29.7985 124.071 30.1616V30.1616Z" fill="white"/>
<path d="M45.5194 10.4774C45.9882 10.4438 46.4587 10.5144 46.8968 10.6842C47.335 10.8539 47.7299 11.1185 48.0531 11.4588C48.3764 11.7992 48.6198 12.2068 48.7659 12.6523C48.912 13.0978 48.9571 13.5702 48.898 14.0352C48.898 16.3227 47.6582 17.6376 45.5194 17.6376H42.9258V10.4774H45.5194ZM44.041 16.625H45.3948C45.7298 16.6449 46.0651 16.5902 46.3762 16.4646C46.6873 16.3391 46.9665 16.1459 47.1933 15.8993C47.4201 15.6526 47.5889 15.3586 47.6874 15.0386C47.7859 14.7187 47.8117 14.3809 47.7627 14.0498C47.8081 13.72 47.7798 13.3842 47.6798 13.0666C47.5797 12.749 47.4105 12.4574 47.1842 12.2127C46.9579 11.968 46.6801 11.7762 46.3707 11.6512C46.0614 11.5261 45.7281 11.4708 45.3948 11.4892H44.041V16.625Z" fill="white"/>
<path d="M50.1586 14.9335C50.1245 14.5784 50.1652 14.2202 50.2782 13.8817C50.3911 13.5432 50.5737 13.232 50.8143 12.968C51.0549 12.704 51.3482 12.4931 51.6753 12.3488C52.0025 12.2044 52.3562 12.1299 52.714 12.1299C53.0717 12.1299 53.4255 12.2044 53.7526 12.3488C54.0797 12.4931 54.373 12.704 54.6136 12.968C54.8542 13.232 55.0368 13.5432 55.1498 13.8817C55.2627 14.2202 55.3034 14.5784 55.2694 14.9335C55.3041 15.289 55.2638 15.6478 55.1512 15.9868C55.0386 16.3258 54.8561 16.6376 54.6154 16.9021C54.3747 17.1666 54.0812 17.378 53.7538 17.5226C53.4263 17.6673 53.0721 17.742 52.714 17.742C52.3558 17.742 52.0016 17.6673 51.6742 17.5226C51.3467 17.378 51.0532 17.1666 50.8125 16.9021C50.5719 16.6376 50.3894 16.3258 50.2767 15.9868C50.1641 15.6478 50.1239 15.289 50.1586 14.9335ZM54.1694 14.9335C54.1694 13.7623 53.6417 13.0773 52.7157 13.0773C51.7862 13.0773 51.2633 13.7623 51.2633 14.9336C51.2633 16.1142 51.7862 16.7939 52.7157 16.7939C53.6418 16.7939 54.1694 16.1095 54.1694 14.9335H54.1694Z" fill="white"/>
<path d="M62.0626 17.6374H60.9532L59.8333 13.6577H59.7487L58.6334 17.6374H57.5347L56.041 12.2339H57.1257L58.0964 16.3571H58.1763L59.2904 12.2339H60.3163L61.4303 16.3571H61.5149L62.4809 12.2339H63.5503L62.0626 17.6374Z" fill="white"/>
<path d="M64.8066 12.2336H65.8361V13.092H65.916C66.0516 12.7837 66.2802 12.5253 66.5701 12.3527C66.8599 12.1802 67.1966 12.1021 67.533 12.1293C67.7967 12.1096 68.0614 12.1492 68.3076 12.2453C68.5539 12.3414 68.7752 12.4916 68.9553 12.6846C69.1355 12.8776 69.2697 13.1086 69.3482 13.3603C69.4267 13.6121 69.4473 13.8783 69.4086 14.1391V17.6371H68.3392V14.4069C68.3392 13.5385 67.9608 13.1067 67.1699 13.1067C66.9909 13.0984 66.8122 13.1288 66.6461 13.1958C66.4799 13.2628 66.3303 13.3648 66.2074 13.4948C66.0845 13.6249 65.9913 13.7799 65.9341 13.9493C65.8769 14.1186 65.8571 14.2983 65.876 14.476V17.6372H64.8066L64.8066 12.2336Z" fill="white"/>
<path d="M71.1113 10.1245H72.1807V17.6374H71.1113V10.1245Z" fill="white"/>
<path d="M73.6683 14.9331C73.6343 14.578 73.675 14.2197 73.788 13.8812C73.9009 13.5427 74.0836 13.2315 74.3242 12.9675C74.5648 12.7035 74.8581 12.4926 75.1853 12.3483C75.5125 12.204 75.8663 12.1294 76.224 12.1294C76.5817 12.1294 76.9355 12.204 77.2627 12.3483C77.5899 12.4926 77.8832 12.7035 78.1238 12.9675C78.3644 13.2315 78.5471 13.5427 78.66 13.8812C78.773 14.2197 78.8137 14.578 78.7797 14.9331C78.8144 15.2886 78.7741 15.6474 78.6614 15.9864C78.5487 16.3255 78.3662 16.6372 78.1255 16.9017C77.8848 17.1662 77.5913 17.3776 77.2638 17.5222C76.9364 17.6668 76.5822 17.7416 76.224 17.7416C75.8658 17.7416 75.5116 17.6668 75.1842 17.5222C74.8567 17.3776 74.5632 17.1662 74.3225 16.9017C74.0818 16.6372 73.8993 16.3255 73.7866 15.9864C73.6739 15.6474 73.6336 15.2886 73.6683 14.9331ZM77.6791 14.9331C77.6791 13.7619 77.1515 13.0769 76.2255 13.0769C75.2959 13.0769 74.773 13.7619 74.773 14.9332C74.773 16.1138 75.2959 16.7935 76.2255 16.7935C77.1515 16.7935 77.6791 16.1091 77.6791 14.9331H77.6791Z" fill="white"/>
<path d="M79.9062 16.1091C79.9062 15.1364 80.6325 14.5757 81.9217 14.496L83.3895 14.4116V13.9452C83.3895 13.3745 83.011 13.0522 82.2801 13.0522C81.6831 13.0522 81.2695 13.2708 81.1508 13.6528H80.1154C80.2247 12.7247 81.1002 12.1294 82.3294 12.1294C83.6879 12.1294 84.4542 12.8038 84.4542 13.9452V17.6372H83.4247V16.8778H83.3401C83.1684 17.1502 82.9272 17.3723 82.6412 17.5213C82.3553 17.6704 82.0348 17.7411 81.7125 17.7262C81.485 17.7498 81.2551 17.7256 81.0376 17.6552C80.82 17.5848 80.6197 17.4696 80.4496 17.3173C80.2794 17.1649 80.1431 16.9787 80.0495 16.7706C79.956 16.5625 79.9071 16.3371 79.9062 16.1091ZM83.3895 15.6474V15.1956L82.0662 15.28C81.32 15.3298 80.9815 15.5829 80.9815 16.0593C80.9815 16.5456 81.4046 16.8286 81.9863 16.8286C82.1568 16.8458 82.329 16.8286 82.4926 16.7781C82.6563 16.7276 82.8081 16.6448 82.939 16.5346C83.0699 16.4244 83.1773 16.289 83.2546 16.1366C83.332 15.9842 83.3779 15.8178 83.3895 15.6474Z" fill="white"/>
<path d="M85.8594 14.9333C85.8594 13.2259 86.7396 12.1443 88.1086 12.1443C88.4473 12.1287 88.7834 12.2096 89.0776 12.3775C89.3719 12.5453 89.6121 12.7933 89.7703 13.0923H89.8502V10.1245H90.9196V17.6374H89.8949V16.7837H89.8103C89.6399 17.0807 89.3913 17.3255 89.0913 17.4917C88.7914 17.6579 88.4515 17.7391 88.1087 17.7264C86.7302 17.7265 85.8594 16.6448 85.8594 14.9333ZM86.9641 14.9333C86.9641 16.0794 87.5058 16.7691 88.4119 16.7691C89.3132 16.7691 89.8703 16.0695 89.8703 14.938C89.8703 13.8118 89.3074 13.1023 88.4119 13.1023C87.5117 13.1023 86.964 13.7966 86.964 14.9333H86.9641Z" fill="white"/>
<path d="M95.3441 14.9335C95.3101 14.5784 95.3508 14.2202 95.4637 13.8817C95.5766 13.5432 95.7593 13.232 95.9999 12.968C96.2405 12.704 96.5337 12.4931 96.8609 12.3488C97.188 12.2044 97.5418 12.1299 97.8995 12.1299C98.2572 12.1299 98.611 12.2044 98.9381 12.3488C99.2653 12.4931 99.5585 12.704 99.7991 12.968C100.04 13.232 100.222 13.5432 100.335 13.8817C100.448 14.2202 100.489 14.5784 100.455 14.9335C100.49 15.289 100.449 15.6478 100.337 15.9868C100.224 16.3258 100.042 16.6376 99.8009 16.9021C99.5603 17.1666 99.2668 17.378 98.9393 17.5226C98.6118 17.6673 98.2577 17.742 97.8995 17.742C97.5414 17.742 97.1872 17.6673 96.8597 17.5226C96.5322 17.378 96.2387 17.1666 95.9981 16.9021C95.7574 16.6376 95.5749 16.3258 95.4623 15.9868C95.3497 15.6478 95.3094 15.289 95.3441 14.9335ZM99.3549 14.9335C99.3549 13.7623 98.8273 13.0773 97.9013 13.0773C96.9717 13.0773 96.4488 13.7623 96.4488 14.9336C96.4488 16.1142 96.9718 16.7939 97.9013 16.7939C98.8273 16.7939 99.3549 16.1095 99.3549 14.9335Z" fill="white"/>
<path d="M101.889 12.2336H102.918V13.092H102.998C103.134 12.7837 103.362 12.5253 103.652 12.3527C103.942 12.1802 104.279 12.1021 104.615 12.1293C104.879 12.1096 105.143 12.1492 105.39 12.2453C105.636 12.3414 105.857 12.4916 106.037 12.6846C106.217 12.8776 106.352 13.1086 106.43 13.3603C106.509 13.6121 106.529 13.8783 106.491 14.1391V17.6371H105.421V14.4069C105.421 13.5385 105.043 13.1067 104.252 13.1067C104.073 13.0984 103.894 13.1288 103.728 13.1958C103.562 13.2628 103.412 13.3648 103.289 13.4948C103.167 13.6249 103.073 13.7799 103.016 13.9493C102.959 14.1186 102.939 14.2983 102.958 14.476V17.6372H101.889V12.2336Z" fill="white"/>
<path d="M112.534 10.8887V12.2586H113.708V13.1568H112.534V15.9354C112.534 16.5014 112.768 16.7492 113.3 16.7492C113.437 16.7488 113.573 16.7406 113.708 16.7246V17.6129C113.516 17.6471 113.322 17.6654 113.127 17.6674C111.937 17.6674 111.464 17.2502 111.464 16.2084V13.1568H110.604V12.2585H111.464V10.8887H112.534Z" fill="white"/>
<path d="M115.168 10.1245H116.228V13.1023H116.313C116.455 12.7911 116.69 12.5312 116.985 12.3579C117.281 12.1847 117.623 12.1066 117.965 12.1343C118.227 12.1201 118.489 12.1637 118.733 12.2622C118.976 12.3606 119.195 12.5114 119.373 12.7038C119.551 12.8962 119.685 13.1255 119.764 13.3753C119.843 13.625 119.866 13.8891 119.831 14.1487V17.6374H118.76V14.4118C118.76 13.5487 118.357 13.1116 117.602 13.1116C117.418 13.0966 117.233 13.1218 117.06 13.1854C116.887 13.2491 116.73 13.3497 116.6 13.4802C116.47 13.6107 116.37 13.7679 116.308 13.9409C116.245 14.1138 116.221 14.2984 116.237 14.4815V17.6374H115.168L115.168 10.1245Z" fill="white"/>
<path d="M126.068 16.1783C125.922 16.6722 125.607 17.0993 125.178 17.3851C124.749 17.6709 124.233 17.7971 123.72 17.7416C123.363 17.751 123.008 17.6828 122.68 17.5418C122.352 17.4007 122.059 17.1902 121.821 16.9249C121.582 16.6595 121.405 16.3456 121.301 16.005C121.196 15.6645 121.168 15.3053 121.216 14.9525C121.169 14.5987 121.198 14.2388 121.302 13.8971C121.406 13.5555 121.583 13.2402 121.82 12.9725C122.057 12.7048 122.348 12.491 122.675 12.3456C123.002 12.2001 123.357 12.1264 123.715 12.1295C125.223 12.1295 126.132 13.1567 126.132 14.8535V15.2256H122.306V15.2854C122.289 15.4836 122.314 15.6832 122.379 15.8713C122.444 16.0594 122.548 16.2319 122.684 16.3776C122.82 16.5234 122.985 16.6392 123.168 16.7177C123.352 16.7962 123.549 16.8356 123.749 16.8334C124.005 16.864 124.264 16.818 124.493 16.7014C124.723 16.5847 124.913 16.4027 125.038 16.1783L126.068 16.1783ZM122.306 14.4369H125.043C125.056 14.2556 125.032 14.0734 124.97 13.9021C124.909 13.7309 124.812 13.5743 124.687 13.4425C124.561 13.3106 124.409 13.2065 124.241 13.1367C124.072 13.0668 123.891 13.0329 123.709 13.0371C123.524 13.0348 123.34 13.0694 123.169 13.139C122.998 13.2085 122.842 13.3115 122.711 13.442C122.581 13.5724 122.477 13.7277 122.408 13.8985C122.338 14.0694 122.303 14.2525 122.306 14.4369H122.306Z" fill="white"/>
</g>
<defs>
<clipPath id="clip0_4531_40430">
<rect width="144" height="48" fill="white"/>
</clipPath>
</defs>
</svg>
